<?xml version="1.0" encoding="UTF-8"?>
<mxfile host="app.diagrams.net" version="16.5.6">
  <diagram id="ff" name="Page-1">
    <mxGraphModel dx="946" dy="589" grid="1" gridSize="10" guides="1" tooltips="1" connect="1" arrows="1" fold="1" page="1" pageScale="1" pageWidth="827" pageHeight="1169" math="0" shadow="0">
      <root>
        <mxCell id="0" />
        <mxCell id="1" parent="0" />
        <mxCell id="2" value="&lt;div style=&quot;color: rgb(212 , 212 , 212) ; background-color: rgb(30 , 30 , 30) ; font-family: &amp;#34;menlo&amp;#34; , &amp;#34;monaco&amp;#34; , &amp;#34;courier new&amp;#34; , monospace ; font-weight: normal ; font-size: 12px ; line-height: 18px&quot;&gt;ininininini&lt;/div&gt;" style="text;whiteSpace=wrap;html=1;" vertex="1" parent="1">
          <mxGeometry x="277" y="170" width="550" height="90" as="geometry" />
        </mxCell>
        <mxCell id="4" value="" style="ellipse;whiteSpace=wrap;html=1;" vertex="1" parent="1">
          <mxGeometry x="294" y="410" width="120" height="80" as="geometry" />
        </mxCell>
      </root>
    </mxGraphModel>
  </diagram>
  <diagram id="qwe" name="Page-2">
    <mxGraphModel dx="2521" dy="923" grid="1" gridSize="10" guides="1" tooltips="1" connect="1" arrows="1" fold="1" page="1" pageScale="1" pageWidth="827" pageHeight="1169" math="0" shadow="0">
      <root>
        <mxCell id="0" />
        <mxCell id="1" parent="0"/>
        <mxCell value="SIM_{yao}" parent="1" id="2" vertex="1">
          <mxGeometry x="150" y="75" width="80" height="50" as="geometry" />
        </mxCell>
        <mxCell value="EV_[1...d]" id="3" parent="1"  vertex="1">
          <mxGeometry x="330" y="75" width="80" height="50" as="geometry" />
        </mxCell>
        <mxCell value="BITS_[1]" id="4" parent="1" vertex="1">
          <mxGeometry x="510" y="20" width="80" height="50" as="geometry" />
        </mxCell>
        <mxCell value="KEYS_[d+1]" id="5" parent="1"  vertex="1">
          <mxGeometry x="510" y="130" width="80" height="50" as="geometry" />
        </mxCell>
        <mxCell value="Adv_pkg" style="fillColor=none;strokeColor=none;fontSize=none;" id="6" parent="1" vertex="1">
          <mxGeometry width="50" height="200" as="geometry" />
        </mxCell>
        <mxCell id="8" style="noEdgeStyle=1;orthogonal=1;" edge="1" parent="1" source="6" target="4">
          <mxGeometry relative="1" as="geometry">
            <Array as="points">
              <mxPoint x="100" y="15" />
              <mxPoint x="280" y="15" />
              <mxPoint x="280" y="15" />
              <mxPoint x="460" y="15" />
            </Array>
          </mxGeometry>
        </mxCell>
        <mxCell id="35" value="SETBIT_[1]" style="edgeLabel;html=1;align=center;verticalAlign=middle;resizable=0;points=[];" vertex="1" connectable="0" parent="8">
          <mxGeometry x="-0.205" y="-5" relative="1" as="geometry">
            <mxPoint as="offset" />
          </mxGeometry>
        </mxCell>
      </root>
    </mxGraphModel>
  </diagram>
</mxfile>